<svg xmlns="http://www.w3.org/2000/svg" viewBox="0 0 574.64 352.17"><defs><style>.cls-1{fill:red;stroke:#000;stroke-miterlimit:10;}</style></defs><g id="K"><path class="cls-1" d="M708.23,505.62,778,701s25.88,7.67,19.56-8.26-75.51-200.1-75.51-200.1l-4.21,1.48Z" transform="translate(-658.56 -353.24)"/></g><g id="K-2" data-name="K"><path class="cls-1" d="M837.22,368.73c-5.68-5.8-87.58,59.3-157.33,135.25-7.63,8.31-14.17,15.73-19.46,21.84a5.61,5.61,0,0,0-1.31,4.51l2.53,16.79a5.62,5.62,0,0,0,9.24,3.41c6.25-5.41,13.43-11.76,21.3-18.92C770.71,460.11,843.1,374.74,837.22,368.73Z" transform="translate(-658.56 -353.24)"/></g><g id="K-3" data-name="K"><path class="cls-1" d="M687.61,357.51s-29.54,150.87-9.27,337.71c0,0,14.48,19.72,23.17,2.9Z" transform="translate(-658.56 -353.24)"/></g><g id="R"><path class="cls-1" d="M884.54,600.38s-2.35-29-71.17-12.09c0,0-10.08,3.36-9.57,19,0,0,1,13.77,7.38,11.25S836.53,613,836.53,613s31.39-2.18,39.28,3.52C875.81,616.49,883.7,609.11,884.54,600.38Z" transform="translate(-658.56 -353.24)"/></g><g id="R-2" data-name="R"><path class="cls-1" d="M818.43,574.4s-11.37,64.21-7.2,127.64c0,0,15.54,2.33,18.58-.78s8-124.91,8-124.91A32.17,32.17,0,0,0,818.43,574.4Z" transform="translate(-658.56 -353.24)"/></g><g id="O"><path class="cls-1" d="M970,626.31s.68-52.17-39.91-52.65c-.34,0-30.23-1.07-34.26,36.48-4.12,38.39-4.53,53.52-4.53,53.52s-1.88,40.16,27.71,39.43c24.36-.62,30-.37,30-.37s20.92-12,21.26-28.9S970,626.31,970,626.31Zm-38.62,56.8c-13.6-1.69-24.11-23-25.65-26.26a2.42,2.42,0,0,1-.29-.87c-2.08-37.76,6.12-52.35,11.06-56.43a3.18,3.18,0,0,1,3.56-.42c5.07,2.66,7.81,9.57,8.33,11a4,4,0,0,1,.15.52l12.23,56.64.06.23C941.27,669,945.44,684.85,931.39,683.11Z" transform="translate(-658.56 -353.24)"/></g><g id="N"><path class="cls-1" d="M1042.87,576.07a2.25,2.25,0,0,1,1.8-1.93c4.09-.77,14.5-1.76,13.38,8.32-1.15,10.33-17.34,86.22-23,112.42a2.23,2.23,0,0,1-4.34.14l-3.15-11.29a2.53,2.53,0,0,1-.06-1C1028.58,675.56,1041.16,589.05,1042.87,576.07Z" transform="translate(-658.56 -353.24)"/></g><g id="N-2" data-name="N"><path class="cls-1" d="M1026.32,701.45s8.87,4.56,10-2.45-27.41-100.37-36.45-114.72S1025,692.81,1026.32,701.45Z" transform="translate(-658.56 -353.24)"/></g><g id="N-3" data-name="N"><path class="cls-1" d="M990.41,575c-.51.2-11.95,84.9-8.18,121a7.21,7.21,0,0,0,4.37,5.86c3.32,1.4,7.67,2,8.57-3.73,1.31-8.29,6.38-94,7.71-116.82a7.29,7.29,0,0,0-8.9-7.43A22.9,22.9,0,0,0,990.41,575Z" transform="translate(-658.56 -353.24)"/></g><g id="O-2" data-name="O"><path class="cls-1" d="M1140.11,626.2s.68-52.09-39.91-52.58c-.34,0-30.23-1.06-34.26,36.44-4.12,38.34-4.53,53.44-4.53,53.44s-1.88,40.12,27.71,39.38c24.36-.62,30-.37,30-.37s20.92-12,21.26-28.86S1140.11,626.2,1140.11,626.2Zm-38.62,56.73c-13.6-1.69-24.11-23-25.65-26.23a2.37,2.37,0,0,1-.29-.86c-2.08-37.71,6.12-52.28,11.06-56.36a3.2,3.2,0,0,1,3.56-.42c5.07,2.66,7.81,9.56,8.33,11a4,4,0,0,1,.15.52l12.23,56.56.06.24C1111.37,668.86,1115.54,684.67,1101.49,682.93Z" transform="translate(-658.56 -353.24)"/></g><g id="S"><path class="cls-1" d="M1163.89,702.35s-15.51-6.08-1.34-12.88,56.68-7.4,56.68-7.4l2.88,12.17S1173.18,705.29,1163.89,702.35Z" transform="translate(-658.56 -353.24)"/></g><g id="S-2" data-name="S"><path class="cls-1" d="M1209.47,619s12.44-5.07,15.8,1.31,10.43,66.11,6,70.37-12.16,3.45-12.16,3.45S1210.23,646.18,1209.47,619Z" transform="translate(-658.56 -353.24)"/></g><g id="S-3" data-name="S"><path class="cls-1" d="M1224.33,639.11s14.71-6.9-1.49-11.93-56.16,4.24-56.16,4.24l-1.12,10.45S1190.43,646.11,1224.33,639.11Z" transform="translate(-658.56 -353.24)"/></g><g id="S-4" data-name="S"><path class="cls-1" d="M1169.53,575.35s-17.69-3.43-17.58,14.14,1.76,42.71,1.76,42.71,5.29,11.2,13.79,11.86C1167.5,644.06,1172,579.34,1169.53,575.35Z" transform="translate(-658.56 -353.24)"/></g><g id="S-5" data-name="S"><path class="cls-1" d="M1227.31,573.71s-74.52-.8-74.88,26.79c0,0,25.32,4,75.47-13.26A17.18,17.18,0,0,0,1227.31,573.71Z" transform="translate(-658.56 -353.24)"/></g></svg>